<svg height="512pt" viewBox="0 0 512 512.00013" width="512pt" xmlns="http://www.w3.org/2000/svg"><path d="m191.332031 282.695312c-5.8125-29.0625-10.332031-63.535156-10.332031-100.855468 0-12.175782.492188-24.054688 1.34375-35.539063-26.753906-7.992187-54.941406-6.117187-78.128906 7.636719-4.5 2.664062-7.28125 7.484375-7.355469 12.714844-.058594 5.226562 2.59375 10.121094 7.03125 12.902344 59.914063 37.558593 76.507813 70.027343 87.441406 103.140624zm0 0"/><path d="m408.109375 179.554688c4.4375-2.78125 7.089844-7.675782 7.03125-12.902344-.074219-5.230469-2.855469-10.050782-7.355469-12.714844-23.21875-13.746094-51.398437-15.625-78.128906-7.648438.851562 11.492188 1.34375 23.371094 1.34375 35.550782 0 37.324218-4.519531 71.792968-10.332031 100.855468 10.933593-33.113281 27.527343-65.582031 87.441406-103.140624zm0 0"/><path d="m105.910156 392.042969c15.367188 19.949219 39.917969 30.078125 60.703125 30.078125 8.730469 0 17.167969-1.554688 25.226563-4.617188-14.355469-16.390625-34.378906-25.460937-55.839844-25.460937zm0 0"/><path d="m256 241.839844c14.425781 0 27.792969 4.292968 39.242188 11.382812 3.363281-21.839844 5.757812-45.773437 5.757812-71.382812 0-92.984375-29.839844-170.238282-31.097656-173.359375-4.601563-11.308594-23.203125-11.308594-27.804688 0-1.257812 3.121093-31.097656 80.371093-31.097656 173.359375 0 25.609375 2.394531 49.542968 5.757812 71.382812 11.449219-7.089844 24.816407-11.382812 39.242188-11.382812zm0 0"/><path d="m256 361.839844c24.8125 0 45-20.183594 45-45 0-24.066406-19.984375-45-45-45s-45 20.933594-45 45c0 24.816406 20.1875 45 45 45zm0 0"/><path d="m502.742188 272.984375c-5.625-2.359375-12.054688-1.039063-16.347657 3.25-16.273437 16.273437-39.804687 25.804687-62.816406 25.804687h-9.550781l4.453125-6.679687c3.894531-5.84375 3.222656-13.792969-1.625-18.875-4.851563-5.082031-12.585938-6.109375-18.574219-2.503906-21.671875 13-44.707031 22.496093-68.6875 28.984375.851562 4.507812 1.40625 9.125 1.40625 13.875 0 41.355468-33.648438 75-75 75-41.355469 0-75-33.644532-75-75 0-4.75.554688-9.367188 1.402344-13.875-23.976563-6.488282-47.015625-15.984375-68.683594-28.984375-6.023438-3.621094-13.726562-2.578125-18.574219 2.503906-4.847656 5.082031-5.523437 12.832031-1.625 18.675781l4.453125 6.878906h-9.550781c-23.015625 0-46.542969-9.53125-62.816406-25.804687-4.277344-4.289063-10.738281-5.59375-16.347657-3.25-5.609374 2.3125-9.257812 7.792969-9.257812 13.855469v60c0 62.902344 35.949219 119.445312 92.199219 147.585937 53.015625 26.496094 114.785156 22.734375 163.800781-9.273437 27.246094 17.785156 58.417969 26.835937 89.839844 26.835937 25.121094 0 50.417968-5.800781 73.960937-17.5625 56.25-28.140625 92.199219-84.683593 92.199219-147.585937v-60c0-6.0625-3.648438-11.542969-9.257812-13.855469zm-279.890626 162.15625c-17.242187 11.265625-36.152343 16.980469-56.234374 16.980469-44.445313 0-85.53125-29.019532-99.902344-70.546875-1.625-4.703125-.808594-9.902344 2.167968-13.886719 2.988282-4 7.808594-6.34375 12.714844-6.007812 5.554688.25 48.773438.160156 54.402344.160156 33.105469 0 63.691406 15.570312 83.90625 42.699218 8.414062 11.292969 16.3125 21.914063 2.945312 30.601563zm222.433594-53.566406c-14.367187 41.527343-55.457031 70.546875-99.898437 70.546875-20.085938 0-38.996094-5.714844-56.238281-16.980469-13.367188-8.6875-5.464844-19.308594 2.945312-30.601563 20.214844-27.128906 50.800781-42.699218 83.90625-42.699218h47.578125c8.488281 0 14.148437-1.378906 19.539063 5.847656 2.976562 3.984375 3.796874 9.183594 2.167968 13.886719zm0 0"/><path d="m320.160156 417.503906c8.058594 3.0625 16.492188 4.617188 25.226563 4.617188 20.785156 0 45.335937-10.128906 60.703125-30.078125h-30.089844c-21.460938 0-41.484375 9.070312-55.839844 25.460937zm0 0"/></svg>